<?xml version="1.0" encoding="utf-8"?>
<!-- Generator: Adobe Illustrator 26.2.1, SVG Export Plug-In . SVG Version: 6.00 Build 0)  -->
<svg version="1.1" id="レイヤー_1" xmlns="http://www.w3.org/2000/svg" xmlns:xlink="http://www.w3.org/1999/xlink" x="0px"
	 y="0px" viewBox="0 0 254.1 256.5" style="enable-background:new 0 0 254.1 256.5;" xml:space="preserve">
<style type="text/css">
	.st0{fill:#FFFFFF;}
	.st1{fill:#E7380D;}
</style>
<g>
	<g>
		<path class="st0" d="M250,144c0.6-5.1,1-10.2,1-15.3C251,60.3,195.4,4.7,127.1,4.7c-0.2,0-0.6,0-0.8,0h-0.2c-0.2,0-0.2,0-0.4,0
			C58,5.3,3,60.7,3,128.4c0,68.3,55.6,123.9,124.1,123.9c63,0,115.1-47.1,122.9-108C250,144.4,250,144.2,250,144z M239.6,128.4
			c0,3.1-0.2,6.1-0.4,9h-67.9v-24.7h22.8c3.1,0,5.7-2.6,5.7-5.7c0-3.1-2.6-5.7-5.7-5.7h-62.6V74.3h42.4c3.1,0,5.7-2.6,5.7-5.7
			s-2.6-5.7-5.7-5.7h-42.4V15.9C191.5,18.5,239.6,68,239.6,128.4z M120.2,16.1v46.7H77.8c-3.1,0-5.7,2.6-5.7,5.7
			c0,3.1,2.6,5.7,5.7,5.7h42.4v27.1H17.7C29.3,54.4,70.5,19.1,120.2,16.1z M14.4,128.4c0-5.3,0.4-10.6,1.2-15.7h144.5v24.9H57.8
			c-3.1,0-5.7,2.6-5.7,5.7s2.6,5.7,5.7,5.7h102.3v87.2c-10.4,3.1-21.6,4.9-33,4.9C64.9,241.2,14.4,190.7,14.4,128.4z M171.3,232.1
			v-83.3h66.4C230.8,186.4,205.4,217.4,171.3,232.1z"/>
		<path class="st1" d="M131.8,189.3c0,9.6-7.9,17.5-17.5,17.5s-17.5-7.9-17.5-17.5c0-9.6,7.9-17.5,17.5-17.5
			S131.8,179.7,131.8,189.3z"/>
	</g>
</g>
</svg>
