<?xml version="1.0" encoding="utf-8"?>
<!-- Generator: Adobe Illustrator 26.2.1, SVG Export Plug-In . SVG Version: 6.00 Build 0)  -->
<svg version="1.1" id="レイヤー_1" xmlns="http://www.w3.org/2000/svg" xmlns:xlink="http://www.w3.org/1999/xlink" x="0px"
	 y="0px" viewBox="0 0 254 82" style="enable-background:new 0 0 254 82;" xml:space="preserve">
<style type="text/css">
	.st0{fill:#5D8134;}
	.st1{fill:#E7380D;}
	.st2{fill:#030000;}
</style>
<path class="st0" d="M58.8,45.2c0.1-1.2,0.2-2.4,0.2-3.7C59.1,25.3,45.8,12,29.5,12c-0.1,0-0.1,0-0.2,0c0,0,0,0,0,0c0,0-0.1,0-0.1,0
	C13.1,12.2,0,25.4,0,41.6c0,16.3,13.2,29.5,29.5,29.5c15,0,27.4-11.2,29.3-25.7C58.8,45.3,58.8,45.3,58.8,45.2 M56.3,41.6
	c0,0.7,0,1.4-0.1,2.2H40.1v-5.9h5.4c0.7,0,1.4-0.6,1.4-1.4c0-0.7-0.6-1.4-1.4-1.4H30.6v-6.5h10.1c0.7,0,1.4-0.6,1.4-1.3
	c0-0.7-0.6-1.4-1.4-1.4H30.6V14.8C44.9,15.3,56.3,27.1,56.3,41.6 M27.9,14.8v11.1H17.8c-0.7,0-1.4,0.6-1.4,1.4
	c0,0.7,0.6,1.3,1.4,1.3h10.1v6.5H3.5C6.3,23.9,16.1,15.5,27.9,14.8 M2.7,41.6c0-1.3,0.1-2.5,0.3-3.8h34.4v5.9H13
	c-0.7,0-1.4,0.6-1.4,1.3s0.6,1.4,1.4,1.4h24.4v20.8c-2.5,0.8-5.1,1.2-7.9,1.2C14.7,68.4,2.7,56.3,2.7,41.6 M40.1,66.2V46.4h15.8
	C54.3,55.3,48.2,62.7,40.1,66.2"/>
<path class="st1" d="M30.7,56c0,2.3-1.9,4.2-4.2,4.2c-2.3,0-4.2-1.9-4.2-4.2c0-2.3,1.9-4.2,4.2-4.2C28.8,51.8,30.7,53.7,30.7,56"/>
<path class="st2" d="M93.6,42.4c0,1.6-0.3,3.2-0.9,4.6c-0.6,1.4-1.5,2.7-2.7,3.9c-1.2,1.1-2.5,2-4,2.6c-1.5,0.6-3,0.9-4.6,0.9
	c-1.6,0-3.2-0.3-4.7-0.9c-1.5-0.6-2.8-1.5-4-2.6c-1.2-1.1-2-2.4-2.7-3.9c-0.6-1.4-0.9-3-0.9-4.6c0-1.6,0.3-3.2,0.9-4.6
	c0.6-1.4,1.5-2.7,2.7-3.9c1.2-1.1,2.5-2,4-2.6c1.5-0.6,3-0.9,4.7-0.9c1.6,0,3.2,0.3,4.7,0.9c1.5,0.6,2.8,1.5,4,2.6
	c1.2,1.2,2.1,2.5,2.7,3.9C93.3,39.3,93.6,40.8,93.6,42.4 M89.7,42.4c0-1.2-0.2-2.3-0.6-3.3c-0.4-1-1-2-1.8-2.8
	c-0.8-0.8-1.7-1.4-2.7-1.8c-1-0.4-2.1-0.6-3.2-0.6c-1.1,0-2.2,0.2-3.2,0.6c-1,0.4-1.9,1-2.7,1.9c-0.8,0.8-1.4,1.7-1.8,2.8
	c-0.4,1-0.6,2.1-0.6,3.3c0,1.2,0.2,2.2,0.6,3.3c0.4,1,1,2,1.8,2.8c0.8,0.8,1.7,1.4,2.7,1.9c1,0.4,2.1,0.6,3.2,0.6
	c1.1,0,2.2-0.2,3.2-0.6c1-0.4,1.9-1,2.7-1.9c0.8-0.8,1.4-1.7,1.8-2.8C89.5,44.6,89.7,43.6,89.7,42.4"/>
<polygon class="st2" points="105.2,34.1 105.2,53.8 101.5,53.8 101.5,34.1 95.5,34.1 95.5,31 111.3,31 111.3,34.1 "/>
<polygon class="st2" points="114.1,53.8 114.1,31 126.9,31 126.9,34.1 117.8,34.1 117.8,39.8 126.9,39.8 126.9,43.1 117.8,43.1 
	117.8,50.5 126.9,50.5 126.9,53.8 "/>
<path class="st2" d="M134.6,43.6v10.2h-3.5V31h5.2c1.5,0,2.7,0.1,3.5,0.3c0.8,0.2,1.6,0.5,2.1,1c0.7,0.6,1.3,1.3,1.6,2.1
	c0.4,0.9,0.6,1.8,0.6,2.9c0,1.8-0.4,3.3-1.3,4.3c-0.9,1-2.2,1.7-3.9,1.9l7.9,10.4h-4.2L135,43.6H134.6z M134.8,40.7h0.7
	c2,0,3.3-0.2,3.9-0.7c0.6-0.5,1-1.3,1-2.4c0-1.3-0.3-2.1-1-2.7c-0.7-0.5-2-0.8-3.8-0.8h-0.7V40.7z"/>
<path class="st2" d="M166.5,53.8l-2.6-5.9h-9l-2.7,5.9h-3.9L159.4,30l11,23.7H166.5z M156.2,44.8h6.4l-2.3-5.2
	c-0.1-0.3-0.3-0.7-0.4-1.1c-0.1-0.4-0.3-0.9-0.4-1.4c-0.1,0.5-0.3,1-0.4,1.4c-0.1,0.4-0.3,0.8-0.4,1.2L156.2,44.8z"/>
<path class="st2" d="M180.9,49.2l3-1.4c0.3,1,0.8,1.8,1.5,2.3c0.7,0.5,1.7,0.8,2.9,0.8c1.1,0,2-0.3,2.6-0.9c0.6-0.6,1-1.4,1-2.5
	c0-1.3-1.1-2.5-3.3-3.6c-0.3-0.2-0.6-0.3-0.7-0.3c-2.5-1.2-4.2-2.3-5-3.3c-0.8-1-1.3-2.2-1.3-3.6c0-1.9,0.6-3.4,1.9-4.5
	c1.3-1.2,2.9-1.7,5-1.7c1.7,0,3.1,0.3,4.2,1c1.1,0.6,1.9,1.6,2.4,2.8l-2.9,1.5c-0.5-0.7-1-1.2-1.5-1.6c-0.5-0.3-1.2-0.5-1.9-0.5
	c-1,0-1.8,0.3-2.4,0.8c-0.6,0.5-0.9,1.2-0.9,2.1c0,1.4,1.3,2.7,3.9,3.8c0.2,0.1,0.4,0.2,0.5,0.2c2.3,1,3.8,2.1,4.6,3
	c0.8,1,1.3,2.2,1.3,3.7c0,2.2-0.7,3.9-2,5.2c-1.4,1.3-3.2,1.9-5.5,1.9c-1.9,0-3.5-0.4-4.8-1.3C182.1,52.2,181.3,50.9,180.9,49.2"/>
<polygon class="st2" points="207.1,34.1 207.1,53.8 203.4,53.8 203.4,34.1 197.3,34.1 197.3,31 213.1,31 213.1,34.1 "/>
<path class="st2" d="M231,53.8l-2.6-5.9h-9l-2.6,5.9h-3.9L223.9,30l11,23.7H231z M220.8,44.8h6.4l-2.3-5.2c-0.1-0.3-0.3-0.7-0.4-1.1
	c-0.1-0.4-0.3-0.9-0.4-1.4c-0.1,0.5-0.3,1-0.4,1.4c-0.1,0.4-0.3,0.8-0.4,1.2L220.8,44.8z"/>
<path class="st2" d="M242,53.8V43.3L234.3,31h3.9l4.8,7.8c0.1,0.2,0.3,0.5,0.4,0.8c0.2,0.3,0.3,0.7,0.5,1c0.1-0.4,0.3-0.7,0.5-1
	c0.2-0.3,0.3-0.6,0.5-0.9l4.9-7.7h3.7l-7.9,12.4v10.4H242z"/>
</svg>
